<mxfile host="Electron" agent="Mozilla/5.0 (X11; Linux x86_64) AppleWebKit/537.36 (KHTML, like Gecko) draw.io/27.0.5 Chrome/134.0.6998.205 Electron/35.3.0 Safari/537.36" version="27.0.5">
  <diagram name="Page-1" id="5f0bae14-7c28-e335-631c-24af17079c00">
    <mxGraphModel dx="1063" dy="752" grid="1" gridSize="10" guides="1" tooltips="1" connect="1" arrows="1" fold="1" page="1" pageScale="1" pageWidth="1100" pageHeight="850" background="none" math="0" shadow="0">
      <root>
        <mxCell id="0" />
        <mxCell id="1" parent="0" />
        <mxCell id="CMZ-J-D8tQS0JJ2g9DFz-13" value="" style="edgeStyle=orthogonalEdgeStyle;rounded=0;orthogonalLoop=1;jettySize=auto;html=1;" edge="1" parent="1" source="CMZ-J-D8tQS0JJ2g9DFz-1" target="CMZ-J-D8tQS0JJ2g9DFz-11">
          <mxGeometry relative="1" as="geometry" />
        </mxCell>
        <mxCell id="CMZ-J-D8tQS0JJ2g9DFz-1" value="" style="shape=cylinder3;whiteSpace=wrap;html=1;boundedLbl=1;backgroundOutline=1;size=15;rotation=90;flipV=1;fillColor=#f8cecc;strokeColor=#b85450;" vertex="1" parent="1">
          <mxGeometry x="453.34" y="300" width="30" height="150" as="geometry" />
        </mxCell>
        <mxCell id="CMZ-J-D8tQS0JJ2g9DFz-7" value="" style="edgeStyle=orthogonalEdgeStyle;rounded=0;orthogonalLoop=1;jettySize=auto;html=1;" edge="1" parent="1" source="CMZ-J-D8tQS0JJ2g9DFz-3" target="CMZ-J-D8tQS0JJ2g9DFz-4">
          <mxGeometry relative="1" as="geometry" />
        </mxCell>
        <mxCell id="CMZ-J-D8tQS0JJ2g9DFz-3" value="" style="verticalLabelPosition=bottom;html=1;verticalAlign=top;strokeWidth=1;align=center;outlineConnect=0;dashed=0;outlineConnect=0;shape=mxgraph.aws3d.file;aspect=fixed;strokeColor=#292929;" vertex="1" parent="1">
          <mxGeometry x="457.3" y="160" width="22.07" height="50.6" as="geometry" />
        </mxCell>
        <mxCell id="CMZ-J-D8tQS0JJ2g9DFz-5" value="" style="rounded=0;orthogonalLoop=1;jettySize=auto;html=1;" edge="1" parent="1" source="CMZ-J-D8tQS0JJ2g9DFz-4" target="CMZ-J-D8tQS0JJ2g9DFz-1">
          <mxGeometry relative="1" as="geometry" />
        </mxCell>
        <mxCell id="CMZ-J-D8tQS0JJ2g9DFz-4" value="&amp;lt;&amp;lt;Route&amp;gt;&amp;gt;&lt;br&gt;&lt;div style=&quot;color: rgb(31, 35, 40); font-family: &amp;quot;Droid Sans Mono&amp;quot;, &amp;quot;monospace&amp;quot;, monospace; font-size: 14px; line-height: 19px; white-space: pre;&quot;&gt;&lt;span style=&quot;color: rgb(10, 48, 105);&quot;&gt;sendToActiveMQ&lt;/span&gt;&lt;/div&gt;(send files)" style="html=1;align=center;verticalAlign=middle;rounded=1;absoluteArcSize=1;arcSize=10;dashed=0;whiteSpace=wrap;fillColor=#dae8fc;strokeColor=#6c8ebf;" vertex="1" parent="1">
          <mxGeometry x="370" y="260" width="196.67" height="50" as="geometry" />
        </mxCell>
        <mxCell id="CMZ-J-D8tQS0JJ2g9DFz-6" value="student-queue" style="text;html=1;align=center;verticalAlign=middle;whiteSpace=wrap;rounded=0;" vertex="1" parent="1">
          <mxGeometry x="430" y="365" width="100" height="20" as="geometry" />
        </mxCell>
        <mxCell id="CMZ-J-D8tQS0JJ2g9DFz-8" value="JSON files" style="text;html=1;align=center;verticalAlign=middle;whiteSpace=wrap;rounded=0;" vertex="1" parent="1">
          <mxGeometry x="500" y="170.3" width="60" height="30" as="geometry" />
        </mxCell>
        <mxCell id="CMZ-J-D8tQS0JJ2g9DFz-18" value="" style="edgeStyle=orthogonalEdgeStyle;rounded=0;orthogonalLoop=1;jettySize=auto;html=1;" edge="1" parent="1" source="CMZ-J-D8tQS0JJ2g9DFz-9" target="CMZ-J-D8tQS0JJ2g9DFz-16">
          <mxGeometry relative="1" as="geometry" />
        </mxCell>
        <mxCell id="CMZ-J-D8tQS0JJ2g9DFz-9" value="" style="shape=cylinder3;whiteSpace=wrap;html=1;boundedLbl=1;backgroundOutline=1;size=15;rotation=90;flipV=1;fillColor=#f8cecc;strokeColor=#b85450;" vertex="1" parent="1">
          <mxGeometry x="683.3399999999999" y="390" width="30" height="150" as="geometry" />
        </mxCell>
        <mxCell id="CMZ-J-D8tQS0JJ2g9DFz-10" value="" style="rounded=0;orthogonalLoop=1;jettySize=auto;html=1;" edge="1" parent="1" source="CMZ-J-D8tQS0JJ2g9DFz-11" target="CMZ-J-D8tQS0JJ2g9DFz-9">
          <mxGeometry relative="1" as="geometry" />
        </mxCell>
        <mxCell id="CMZ-J-D8tQS0JJ2g9DFz-11" value="&amp;lt;&amp;lt;Route&amp;gt;&amp;gt;&lt;br&gt;&lt;div style=&quot;color: rgb(31, 35, 40); font-family: &amp;quot;Droid Sans Mono&amp;quot;, &amp;quot;monospace&amp;quot;, monospace; font-size: 14px; line-height: 19px; white-space: pre;&quot;&gt;&lt;div style=&quot;line-height: 19px;&quot;&gt;&lt;span style=&quot;color: rgb(10, 48, 105);&quot;&gt;receiveFromActiveMQ&lt;/span&gt;&lt;/div&gt;&lt;/div&gt;(split object list)" style="html=1;align=center;verticalAlign=middle;rounded=1;absoluteArcSize=1;arcSize=10;dashed=0;whiteSpace=wrap;fillColor=#dae8fc;strokeColor=#6c8ebf;" vertex="1" parent="1">
          <mxGeometry x="600" y="350" width="196.67" height="50" as="geometry" />
        </mxCell>
        <mxCell id="CMZ-J-D8tQS0JJ2g9DFz-12" value="inbox" style="text;html=1;align=center;verticalAlign=middle;whiteSpace=wrap;rounded=0;" vertex="1" parent="1">
          <mxGeometry x="660" y="455" width="100" height="20" as="geometry" />
        </mxCell>
        <mxCell id="CMZ-J-D8tQS0JJ2g9DFz-14" value="" style="shape=cylinder3;whiteSpace=wrap;html=1;boundedLbl=1;backgroundOutline=1;size=15;rotation=90;flipV=1;fillColor=#f8cecc;strokeColor=#b85450;" vertex="1" parent="1">
          <mxGeometry x="333.3399999999999" y="480" width="30" height="150" as="geometry" />
        </mxCell>
        <mxCell id="CMZ-J-D8tQS0JJ2g9DFz-15" value="" style="rounded=0;orthogonalLoop=1;jettySize=auto;html=1;" edge="1" parent="1" source="CMZ-J-D8tQS0JJ2g9DFz-16" target="CMZ-J-D8tQS0JJ2g9DFz-14">
          <mxGeometry relative="1" as="geometry" />
        </mxCell>
        <mxCell id="CMZ-J-D8tQS0JJ2g9DFz-21" value="" style="rounded=0;orthogonalLoop=1;jettySize=auto;html=1;" edge="1" parent="1" source="CMZ-J-D8tQS0JJ2g9DFz-16" target="CMZ-J-D8tQS0JJ2g9DFz-20">
          <mxGeometry relative="1" as="geometry" />
        </mxCell>
        <mxCell id="CMZ-J-D8tQS0JJ2g9DFz-16" value="&amp;lt;&amp;lt;Route&amp;gt;&amp;gt;&lt;br&gt;&lt;div style=&quot;line-height: 19px; color: rgb(31, 35, 40);&quot;&gt;&lt;div style=&quot;line-height: 19px;&quot;&gt;&lt;span style=&quot;color: rgb(10, 48, 105);&quot;&gt;&lt;font face=&quot;Droid Sans Mono, monospace, monospace&quot; color=&quot;#0a3069&quot;&gt;&lt;span style=&quot;font-size: 14px; white-space: pre;&quot;&gt;schoolIdDynamicRouter&lt;/span&gt;&lt;/font&gt;&lt;/span&gt;&lt;/div&gt;&lt;div style=&quot;line-height: 19px;&quot;&gt;&lt;span style=&quot;color: light-dark(rgb(0, 0, 0), rgb(255, 255, 255)); font-family: Helvetica; font-size: 12px; white-space: normal; background-color: transparent;&quot;&gt;(dynamic routing)&lt;/span&gt;&lt;/div&gt;&lt;/div&gt;" style="html=1;align=center;verticalAlign=middle;rounded=1;absoluteArcSize=1;arcSize=10;dashed=0;whiteSpace=wrap;fillColor=#dae8fc;strokeColor=#6c8ebf;" vertex="1" parent="1">
          <mxGeometry x="370.01" y="440" width="196.67" height="50" as="geometry" />
        </mxCell>
        <mxCell id="CMZ-J-D8tQS0JJ2g9DFz-17" value="schoolId1" style="text;html=1;align=center;verticalAlign=middle;whiteSpace=wrap;rounded=0;" vertex="1" parent="1">
          <mxGeometry x="310" y="545" width="100" height="20" as="geometry" />
        </mxCell>
        <mxCell id="CMZ-J-D8tQS0JJ2g9DFz-19" value="" style="shape=cylinder3;whiteSpace=wrap;html=1;boundedLbl=1;backgroundOutline=1;size=15;rotation=90;flipV=1;fillColor=#f8cecc;strokeColor=#b85450;" vertex="1" parent="1">
          <mxGeometry x="513.3299999999999" y="480" width="30" height="150" as="geometry" />
        </mxCell>
        <mxCell id="CMZ-J-D8tQS0JJ2g9DFz-20" value="schoolId2" style="text;html=1;align=center;verticalAlign=middle;whiteSpace=wrap;rounded=0;" vertex="1" parent="1">
          <mxGeometry x="489.99" y="545" width="100" height="20" as="geometry" />
        </mxCell>
        <mxCell id="CMZ-J-D8tQS0JJ2g9DFz-22" value="Splitting &amp;amp; Dynamic Routing" style="text;html=1;align=center;verticalAlign=middle;whiteSpace=wrap;rounded=0;fontSize=25;" vertex="1" parent="1">
          <mxGeometry x="308.33" y="90" width="440" height="30" as="geometry" />
        </mxCell>
      </root>
    </mxGraphModel>
  </diagram>
</mxfile>
